<?xml version="1.0" encoding="UTF-8" standalone="no"?>
<!DOCTYPE svg PUBLIC "-//W3C//DTD SVG 1.0//EN" "http://www.w3.org/TR/2001/PR-SVG-20010719/DTD/svg10.dtd">
<svg width="64cm" height="31cm" viewBox="331 91 1265 616" xmlns="http://www.w3.org/2000/svg" xmlns:xlink="http://www.w3.org/1999/xlink">
  <g id="Background">
    <g>
      <path style="fill: #ffffff; fill-opacity: 1; stroke-opacity: 1; stroke-width: 2; stroke: #000000" fill-rule="evenodd" d="M 699 114.37 C 751.865,98.7593 778.297,93.5556 831.162,93.5556 C 884.027,93.5556 910.46,98.7593 963.325,114.37 L 963.325,197.63 C 910.46,213.241 884.027,218.444 831.162,218.444 C 778.297,218.444 751.865,213.241 699,197.63 L 699,114.37z"/>
      <path style="fill: none; stroke-opacity: 1; stroke-width: 2; stroke: #000000" d="M 699 114.37 C 751.865,129.981 778.297,135.185 831.162,135.185 C 884.027,135.185 910.46,129.981 963.325,114.37"/>
      <text font-size="22.5778" style="fill: #000000; fill-opacity: 1; stroke: none;text-anchor:middle;font-family:sans-serif;font-style:normal;font-weight:normal" x="831.162" y="159.352">
        <tspan x="831.162" y="159.352">Data Donator:</tspan>
        <tspan x="831.162" y="187.574">Wikidata</tspan>
      </text>
    </g>
    <g>
      <polygon style="fill: #ffffff; fill-opacity: 1; stroke-opacity: 1; stroke-width: 2; stroke: #000000" fill-rule="evenodd" points="370.823,379.667 660,379.667 621.177,486.333 332,486.333 "/>
      <text font-size="22.5778" style="fill: #000000; fill-opacity: 1; stroke: none;text-anchor:middle;font-family:sans-serif;font-style:normal;font-weight:normal" x="496" y="411.667">
        <tspan x="496" y="411.667">SPARQL Queries:</tspan>
        <tspan x="496" y="439.889">Scientific Events / </tspan>
        <tspan x="496" y="468.111">Event Series</tspan>
      </text>
    </g>
    <g>
      <polygon style="fill: #ffffff; fill-opacity: 1; stroke-opacity: 1; stroke-width: 2; stroke: #000000" fill-rule="evenodd" points="732.823,378.217 1022,378.217 983.177,484.883 694,484.883 "/>
      <text font-size="22.5778" style="fill: #000000; fill-opacity: 1; stroke: none;text-anchor:middle;font-family:sans-serif;font-style:normal;font-weight:normal" x="858" y="410.217">
        <tspan x="858" y="410.217">MAPPING: </tspan>
        <tspan x="858" y="438.439">donator's properties</tspan>
        <tspan xml:space="preserve" x="858" y="466.661"> to aeon ontology</tspan>
      </text>
    </g>
    <text font-size="12.7998" style="fill: #000000; fill-opacity: 1; stroke: none;text-anchor:start;font-family:sans-serif;font-style:normal;font-weight:normal" x="858" y="431.55">
      <tspan x="858" y="431.55"></tspan>
    </text>
    <g>
      <line style="fill: none; stroke-opacity: 1; stroke-width: 2; stroke: #000000" x1="587.706" y1="379.667" x2="693.812" y2="181.311"/>
      <polygon style="fill: #000000; fill-opacity: 1; stroke-opacity: 1; stroke-width: 2; stroke: #000000" fill-rule="evenodd" points="698.22,183.669 698.528,172.493 689.403,178.952 "/>
    </g>
    <g>
      <line style="fill: none; stroke-opacity: 1; stroke-width: 2; stroke: #000000" x1="831.162" y1="218.444" x2="890.238" y2="267.859"/>
      <polygon style="fill: #000000; fill-opacity: 1; stroke-opacity: 1; stroke-width: 2; stroke: #000000" fill-rule="evenodd" points="887.03,271.694 897.908,274.275 893.446,264.024 "/>
    </g>
    <g>
      <path style="fill: #ffffff; fill-opacity: 1; stroke-opacity: 1; stroke-width: 2; stroke: #000000" fill-rule="evenodd" d="M 761.65 281.333 C 798.19,289.889 816.46,289.889 853,281.333 C 889.54,272.778 907.81,272.778 944.35,281.333 L 944.35,332.667 C 907.81,324.111 889.54,324.111 853,332.667 C 816.46,341.222 798.19,341.222 761.65,332.667 L 761.65,281.333z"/>
      <text font-size="22.5774" style="fill: #000000; fill-opacity: 1; stroke: none;text-anchor:middle;font-family:sans-serif;font-style:normal;font-weight:normal" x="853" y="314.056">
        <tspan x="853" y="314.056">SPARQL Results</tspan>
      </text>
    </g>
    <g>
      <line style="fill: none; stroke-opacity: 1; stroke-width: 2; stroke: #000000" x1="898.675" y1="326.25" x2="941.999" y2="370.368"/>
      <polygon style="fill: #000000; fill-opacity: 1; stroke-opacity: 1; stroke-width: 2; stroke: #000000" fill-rule="evenodd" points="938.431,373.871 949.005,377.503 945.566,366.865 "/>
    </g>
    <g>
      <rect style="fill: #ffffff; fill-opacity: 1; stroke-opacity: 1; stroke-width: 2; stroke: #000000" x="730.65" y="655.889" width="214.7" height="50.2222" rx="0" ry="0"/>
      <text font-size="22.5774" style="fill: #000000; fill-opacity: 1; stroke: none;text-anchor:middle;font-family:sans-serif;font-style:normal;font-weight:normal" x="838" y="687.889">
        <tspan x="838" y="687.889">aeon.ttl ontology</tspan>
      </text>
    </g>
    <g>
      <rect style="fill: #ffffff; fill-opacity: 1; stroke-opacity: 1; stroke-width: 2; stroke: #000000" x="641.4" y="533.328" width="396.9" height="78.4444" rx="0" ry="0"/>
      <text font-size="22.5774" style="fill: #000000; fill-opacity: 1; stroke: none;text-anchor:middle;font-family:sans-serif;font-style:normal;font-weight:normal" x="839.85" y="565.328">
        <tspan x="839.85" y="565.328">Mapping file:</tspan>
        <tspan x="839.85" y="593.55">confident2wikidata_mapping.yml</tspan>
      </text>
    </g>
    <line style="fill: none; stroke-opacity: 1; stroke-width: 2; stroke: #000000" x1="839.85" y1="533.328" x2="838.588" y2="484.883"/>
    <g>
      <line style="fill: none; stroke-opacity: 1; stroke-width: 2; stroke: #000000" x1="838" y1="655.889" x2="839.389" y2="622.763"/>
      <polygon style="fill: #000000; fill-opacity: 1; stroke-opacity: 1; stroke-width: 2; stroke: #000000" fill-rule="evenodd" points="844.385,622.972 839.808,612.771 834.394,622.553 "/>
    </g>
    <g>
      <rect style="fill: #ffffff; fill-opacity: 1; stroke-opacity: 1; stroke-width: 2; stroke: #000000" x="417.1" y="515.439" width="117.05" height="50.2222" rx="0" ry="0"/>
      <text font-size="22.5774" style="fill: #000000; fill-opacity: 1; stroke: none;text-anchor:middle;font-family:sans-serif;font-style:normal;font-weight:normal" x="475.625" y="547.439">
        <tspan x="475.625" y="547.439">*.rq files</tspan>
      </text>
    </g>
    <line style="fill: none; stroke-opacity: 1; stroke-width: 2; stroke: #000000" x1="476.588" y1="486.333" x2="475.625" y2="515.439"/>
    <g>
      <polygon style="fill: #ffffff; fill-opacity: 1; stroke-opacity: 1; stroke-width: 2; stroke: #000000" fill-rule="evenodd" points="1086.9,378.767 1421.52,378.767 1382.7,485.433 1048.08,485.433 "/>
      <text font-size="22.5778" style="fill: #000000; fill-opacity: 1; stroke: none;text-anchor:middle;font-family:sans-serif;font-style:normal;font-weight:normal" x="1234.8" y="410.767">
        <tspan x="1234.8" y="410.767">Data properties &amp; values</tspan>
        <tspan x="1234.8" y="438.989">to</tspan>
        <tspan x="1234.8" y="467.211">Mediawiki syntax</tspan>
      </text>
    </g>
    <g>
      <path style="fill: #ffffff; fill-opacity: 1; stroke-opacity: 1; stroke-width: 2; stroke: #000000" fill-rule="evenodd" d="M 1322.81 557.92 C 1369.85,542.309 1393.37,537.106 1440.41,537.106 C 1487.44,537.106 1510.96,542.309 1558,557.92 L 1558,641.18 C 1510.96,656.791 1487.44,661.994 1440.41,661.994 C 1393.37,661.994 1369.85,656.791 1322.81,641.18 L 1322.81,557.92z"/>
      <path style="fill: none; stroke-opacity: 1; stroke-width: 2; stroke: #000000" d="M 1322.81 557.92 C 1369.85,573.531 1393.37,578.735 1440.41,578.735 C 1487.44,578.735 1510.96,573.531 1558,557.92"/>
      <text font-size="22.5778" style="fill: #000000; fill-opacity: 1; stroke: none;text-anchor:middle;font-family:sans-serif;font-style:normal;font-weight:normal" x="1440.41" y="602.902">
        <tspan x="1440.41" y="602.902">confIDent Vanilla </tspan>
        <tspan x="1440.41" y="631.124">Mediawiki</tspan>
      </text>
    </g>
    <g>
      <line style="fill: none; stroke-opacity: 1; stroke-width: 2; stroke: #000000" x1="1002.59" y1="431.55" x2="1056.49" y2="432.007"/>
      <polygon style="fill: #000000; fill-opacity: 1; stroke-opacity: 1; stroke-width: 2; stroke: #000000" fill-rule="evenodd" points="1056.45,437.007 1066.49,432.092 1056.53,427.007 "/>
    </g>
    <g>
      <line style="fill: none; stroke-opacity: 1; stroke-width: 2; stroke: #000000" x1="1525.63" y1="486.983" x2="1449.89" y2="531.529"/>
      <polygon style="fill: #000000; fill-opacity: 1; stroke-opacity: 1; stroke-width: 2; stroke: #000000" fill-rule="evenodd" points="1447.35,527.219 1441.27,536.599 1452.42,535.839 "/>
    </g>
    <g>
      <polygon style="fill: #ffffff; fill-opacity: 1; stroke-opacity: 1; stroke-width: 2; stroke: #000000" fill-rule="evenodd" points="1475.3,380.317 1594.17,380.317 1555.35,486.983 1436.47,486.983 "/>
      <text font-size="22.5778" style="fill: #000000; fill-opacity: 1; stroke: none;text-anchor:middle;font-family:sans-serif;font-style:normal;font-weight:normal" x="1515.32" y="440.539">
        <tspan x="1515.32" y="440.539">write to</tspan>
      </text>
    </g>
    <g>
      <line style="fill: none; stroke-opacity: 1; stroke-width: 2; stroke: #000000" x1="1402.11" y1="432.1" x2="1444.89" y2="433.333"/>
      <polygon style="fill: #000000; fill-opacity: 1; stroke-opacity: 1; stroke-width: 2; stroke: #000000" fill-rule="evenodd" points="1444.75,438.331 1454.89,433.621 1445.03,428.335 "/>
    </g>
  </g>
</svg>
